<?xml version="1.0" encoding="utf-8"?>
<!DOCTYPE svg PUBLIC "-//W3C//DTD SVG 1.1//EN" "http://www.w3.org/Graphics/SVG/1.1/DTD/svg11.dtd">
<svg version="1.1" id="ticket-null" xmlns="http://www.w3.org/2000/svg" xmlns:xlink="http://www.w3.org/1999/xlink" x="0px"
	 y="0px" width="300px" height="659px" viewBox="0 0 300 659" enable-background="new 0 0 300 659" xml:space="preserve">
<path fill="none" d="z"/>
<g id="Layer_x25_201">
	<path fill="#FFFFFF" d="M0,20v494c11.046,0,20,8.954,20,20s-8.954,20-20,20v85c11.046,0,20,8.954,20,20h109
		c0-11.046,8.954-20,20-20s20,8.954,20,20h111c0-11.046,8.954-20,20-20v-85.025c-10.581-0.521-19-9.264-19-19.975
		s8.419-19.454,19-19.975V20c-11.046,0-20-8.954-20-20H171c0,11.046-8.954,20-20,20s-20-8.954-20-20H20C20,11.046,11.046,20,0,20z"
		/>
	<path fill="#EEEEEE" d="M20,534c0,11.046-8.954,20-20,20v85c11.046,0,20,8.954,20,20h109c0-11.046,8.954-20,20-20s20,8.954,20,20
		h111c0-11.046,8.954-20,20-20v-85.025c-10.581-0.521-19-9.264-19-19.975H20z"/>
	<g id="Line">
		<g>
			<line fill="none" stroke="#BBBBBB" x1="20.309" y1="534" x2="22.309" y2="534"/>
			<line fill="none" stroke="#BBBBBB" stroke-dasharray="4.0537,4.0537" x1="26.363" y1="534" x2="275.664" y2="534"/>
			<line fill="none" stroke="#BBBBBB" x1="277.691" y1="534" x2="279.691" y2="534"/>
		</g>
	</g>
</g>
<path fill="none" d="z"/>
</svg>
