<svg xmlns="http://www.w3.org/2000/svg" width="30.762" height="25" viewBox="0 0 30.762 25"><path fill="#fff" d="M30.762 2.959c-1.132.502-2.348.841-3.625.994 1.303-.781 2.304-2.018 2.775-3.492-1.219.723-2.57 1.249-4.008 1.532-1.15-1.227-2.791-1.993-4.606-1.993-3.486 0-6.311 2.826-6.311 6.311 0 .495.056.976.163 1.438-5.245-.263-9.896-2.775-13.008-6.594-.544.932-.855 2.017-.855 3.173 0 2.19 1.114 4.121 2.808 5.253-1.035-.032-2.008-.316-2.859-.789l-.001.079c0 3.058 2.176 5.609 5.063 6.189-.53.144-1.087.221-1.663.221-.407 0-.802-.04-1.187-.113.803 2.507 3.134 4.332 5.896 4.383-2.16 1.693-4.881 2.702-7.838 2.702-.509 0-1.012-.03-1.506-.088 2.793 1.79 6.11 2.835 9.675 2.835 11.609 0 17.957-9.617 17.957-17.957 0-.274-.006-.546-.018-.816 1.232-.89 2.302-2.002 3.148-3.268z"/></svg>