<?xml version="1.0" encoding="utf-8"?>
<!DOCTYPE svg PUBLIC "-//W3C//DTD SVG 1.1//EN" "http://www.w3.org/Graphics/SVG/1.1/DTD/svg11.dtd">
<svg version="1.1" id="Layer_1" xmlns="http://www.w3.org/2000/svg" xmlns:xlink="http://www.w3.org/1999/xlink" x="0px" y="0px"
	 width="30.762px" height="25px" viewBox="0 0 30.762 25" enable-background="new 0 0 30.762 25" xml:space="preserve">
<path fill="#FFFFFF" d="M30.762,2.959c-1.132,0.502-2.348,0.841-3.625,0.994c1.303-0.781,2.304-2.018,2.775-3.492
	c-1.219,0.723-2.57,1.249-4.008,1.532C24.754,0.766,23.113,0,21.298,0c-3.486,0-6.311,2.826-6.311,6.311
	c0,0.495,0.056,0.976,0.163,1.438C9.905,7.486,5.254,4.974,2.142,1.155C1.598,2.087,1.287,3.172,1.287,4.328
	c0,2.19,1.114,4.121,2.808,5.253C3.06,9.549,2.087,9.265,1.236,8.792c0,0.026-0.001,0.053-0.001,0.079
	c0,3.058,2.176,5.609,5.063,6.189c-0.53,0.144-1.087,0.221-1.663,0.221c-0.407,0-0.802-0.04-1.187-0.113
	c0.803,2.507,3.134,4.332,5.896,4.383c-2.16,1.693-4.881,2.702-7.838,2.702c-0.509,0-1.012-0.03-1.506-0.088
	C2.793,23.955,6.11,25,9.675,25c11.609,0,17.957-9.617,17.957-17.957c0-0.274-0.006-0.546-0.018-0.816
	C28.846,5.337,29.916,4.225,30.762,2.959z"/>
</svg>
