<?xml version="1.0" encoding="UTF-8" standalone="no"?>
<svg width="800px" height="450px" viewBox="0 0 800 450" version="1.1" xmlns="http://www.w3.org/2000/svg" xmlns:xlink="http://www.w3.org/1999/xlink" xmlns:sketch="http://www.bohemiancoding.com/sketch/ns">
    <title>Artboard 1</title>
    <description>Created with Sketch (http://www.bohemiancoding.com/sketch)</description>
    <defs></defs>
    <g id="Page 1" stroke="none" stroke-width="1" fill="none" fill-rule="evenodd">
        <g id="Artboard 1" fill="#D50920">
            <path d="M523.206815,19.6197 C519.437498,21.5389309 521.56187,30.8930679 517.992413,33.1318662 C511.310497,37.3233738 504.853424,41.8703621 498.272048,46.2250012 C496.77736,47.2141386 495.160198,48.0194486 493.599094,48.9093679 C494.505168,47.5087494 495.2126,45.9127382 496.358141,44.7464692 C499.167154,41.8855796 502.196135,39.2413872 505.100203,36.4718026 C506.386499,35.2446636 507.615518,33.9523936 508.800666,32.6284713 C509.0968,32.2973386 509.12422,31.7263781 509.275334,31.2655922 C508.825039,31.2887228 508.312592,31.1797656 507.934807,31.3568972 C505.431069,32.5292533 502.765858,33.4873469 500.515602,35.0401404 C497.085072,37.4067656 493.8934,40.1337412 490.720617,42.8485428 C489.757876,43.6721138 489.104673,44.908992 488.459393,46.0417826 C484.951478,52.2018257 479.466896,56.4268118 474.089557,60.7510159 C471.828332,62.5698113 470.245901,64.6917391 469.525673,67.6141074 C469.093658,69.3665545 467.883528,70.9503916 466.912255,72.5427506 C464.876483,75.8802522 462.730422,79.1507968 460.717194,82.5016898 C460.27543,83.2369993 459.942126,84.213354 460.003059,85.0448381 C460.319911,89.3124331 458.713716,92.5141947 455.297811,95.0962997 C453.681867,96.3185691 453.01526,98.6541507 450.117894,98.0764944 C449.277628,97.9097107 447.404546,99.1654586 447.8652,101.3093 C448.433705,103.953492 446.477146,105.619504 444.78138,107.163775 C444.334131,107.570996 443.035039,107.421255 442.343449,107.084036 C441.590317,106.716381 440.450869,105.547068 440.594671,105.228718 C441.047404,104.22619 441.981507,102.776875 442.802275,102.728788 C445.185975,102.588787 444.813065,101.118168 445.382179,99.5525917 C446.603277,96.1998726 448.406285,93.0188069 450.278757,89.9552202 C451.772835,87.5118988 452.694143,85.1404039 451.662546,81.9940341 C448.876688,85.5835375 446.254131,89.0689532 443.517019,92.4618465 C440.196778,96.5778753 436.713237,100.564251 433.430775,104.709497 C431.913543,106.626293 430.735098,108.808483 429.335466,110.823888 C429.046034,111.240847 428.457421,111.448414 428.005908,111.752764 C427.955942,111.207369 427.817624,110.651017 427.880385,110.119013 C427.949849,109.52614 428.082074,108.880309 428.393442,108.386045 C432.492406,101.883304 436.641946,95.4128236 440.740301,88.9088651 C441.489168,87.7206829 442.043049,86.4107607 442.73342,85.1830129 C443.003963,84.7015313 443.356765,83.9625696 443.754658,83.9053518 C446.795216,83.4683053 447.877996,80.8484609 449.387307,78.836099 C451.478529,76.0488621 453.300426,73.0564933 455.147916,70.0963856 C455.447706,69.6161214 455.286843,68.8473334 455.338027,68.2124594 C454.827408,68.4815048 454.268043,68.6896802 453.818357,69.0378565 C453.346126,69.4042938 453.028665,69.9716022 452.552778,70.3319525 C451.692404,70.9838701 450.763784,71.5481349 449.863803,72.148313 C450.213559,70.9680439 450.236714,69.4949901 450.980096,68.6665496 C452.588728,66.8757544 453.718427,65.0880028 453.745847,62.578333 C453.75194,61.9939811 455.130245,60.8264947 455.581759,60.9561478 C457.020997,61.3688463 458.569305,62.0317205 459.562513,63.0817279 C460.014027,63.5589486 459.323656,65.1914818 459.040927,66.270098 C458.070873,69.9655152 457.01795,73.6396278 456.145999,77.3575669 C456.097861,77.5614814 457.724164,78.5755754 458.030657,78.3777479 C460.607515,76.7135624 463.504271,75.2021605 463.044836,71.2888288 C462.985731,70.7896948 463.794922,69.8060358 464.346366,69.6812523 C467.438107,68.9788126 466.942722,66.7034923 466.99939,64.4768681 C467.037168,62.9910316 467.143191,61.1685841 467.984677,60.0984896 C471.740588,55.3201953 475.529404,50.5181617 479.797763,46.2103925 C482.25702,43.7281142 485.853896,42.4163659 487.63375,39.0764295 C488.67144,37.1298072 489.894366,35.2793595 490.894886,33.3138674 C491.125822,32.860386 490.788253,32.1165547 490.712087,31.5066374 C490.13627,31.7531609 489.397152,31.8493355 489.009618,32.2699471 C485.899596,35.643362 482.882193,39.1032123 479.761812,42.466888 C479.296284,42.9690654 478.438956,43.1090664 477.763209,43.4164599 C477.872888,42.6446284 477.797941,41.7851441 478.120277,41.1167916 C480.262682,36.6799779 482.498315,32.2882081 484.671796,27.8660032 C484.832659,27.5403488 484.765023,26.4866892 484.796708,26.09773 C484.796708,26.09773 505.152642,9.46259828 510.235945,7.32213634 C515.319247,5.18167446 520.714784,10.2506741 527.578744,5.5583837 C534.442704,0.866093572 555.5,0 555.5,0 C555.5,0 531.603238,9.9684192 530.427441,11.3358744 Z M361.173953,411.855211 C370.029959,406.824915 378.889012,401.800706 387.731613,396.74728 C388.185564,396.487365 388.496323,395.976057 388.873498,395.582228 C388.318398,395.310748 387.667024,394.700831 387.22526,394.826831 C385.589817,395.293096 384.01348,395.976057 382.434705,396.624322 C376.649114,398.999469 370.851336,401.350268 365.106571,403.820373 C363.983575,404.30368 363.073845,405.280644 362.06845,406.034214 C361.74977,406.272825 361.474353,406.615523 361.117895,406.753697 C357.419869,408.18536 353.710876,409.589022 349.998836,410.985379 C349.629581,411.124772 349.17624,411.323208 348.840499,411.226424 C343.492407,409.682153 340.148402,414.092184 335.872732,415.67176 C334.273849,416.262199 333.515233,417.35238 332.208219,415.131234 C330.92497,412.952089 328.281086,413.500527 326.352555,414.23888 C322.72704,415.627325 319.305651,417.53986 315.733757,419.082914 C311.810888,420.778143 307.77834,422.22198 303.862175,423.931209 C301.381591,425.013477 299.060652,426.455487 296.60627,427.603495 C292.376299,429.58177 287.990949,431.255086 283.870048,433.431188 C279.713806,435.625552 275.701366,438.134613 271.819932,440.788544 C269.904807,442.097249 268.581951,444.25509 266.698511,445.630143 C265.386014,446.589454 263.614691,448.996254 261.920753,445.753709 C261.802543,445.526664 260.738043,445.630752 260.193301,445.815188 C256.475777,447.076414 252.812484,448.507468 249.060228,449.650606 C247.636832,450.084001 246.025763,449.901999 244.5,450 C245.46457,448.817296 246.312148,447.503113 247.433925,446.495106 C248.216305,445.792666 249.385001,445.527273 250.365413,445.034835 C256.593378,441.902465 262.843888,438.812096 269.009092,435.560421 C269.846312,435.118505 270.246032,433.849365 270.84866,432.963098 C269.833516,432.919272 268.807404,432.767706 267.807493,432.868141 C267.139667,432.935098 266.525462,433.443362 265.851542,433.577885 C265.630965,433.62232 265.03443,432.913794 265.056366,432.884576 C265.97219,431.664133 265.819857,429.849598 268.35589,429.650553 C271.765093,429.383943 275.149313,428.172021 278.425682,427.026448 C282.459449,425.61609 286.364646,423.839295 290.344792,422.269458 C290.808492,422.086239 291.39284,422.211023 291.921129,422.193371 C291.548828,422.634678 291.25574,423.207465 290.787775,423.49051 C289.67331,424.163124 288.443681,424.646431 287.329216,425.320262 C286.973367,425.535742 286.83444,426.10792 286.595582,426.516966 C286.99835,426.748881 287.448645,427.233406 287.796572,427.168275 C289.332694,426.882186 290.903548,426.598532 292.342176,426.017832 C295.631951,424.688432 299.192267,424.123558 301.612527,420.79397 C303.108433,418.735955 305.929023,417.638469 308.348674,415.977327 C307.413961,415.618803 306.646814,415.324801 305.879667,415.03019 C306.632799,414.439143 307.317077,413.718442 308.151251,413.27896 C312.222795,411.135728 316.30348,409.005278 320.453629,407.022134 C321.346907,406.595435 322.752023,406.375695 323.556339,406.781698 C326.256281,408.147012 328.682025,407.929097 331.329565,406.61674 C336.357149,404.123505 341.491366,401.844533 346.571353,399.454168 C347.2014,399.157731 347.977687,398.855207 348.303679,398.321986 C348.601641,397.8332 348.557769,396.522061 348.360956,396.454495 C347.60173,396.193363 346.582321,395.984579 345.907792,396.293189 C340.178259,398.919121 334.516362,401.692358 328.799626,404.347507 C327.719283,404.849075 326.485999,405.023164 325.323397,405.349427 C326.126494,404.528899 326.807116,403.509327 327.755234,402.924366 C331.222932,400.786004 334.910599,398.9806 338.25826,396.677888 C340.395181,395.207878 342.582677,393.361082 343.807431,391.161849 C344.801858,389.374706 345.894387,389.57436 347.21054,389.574969 C350.851289,389.576186 353.732202,387.796956 356.487594,385.728594 C356.817851,385.480853 356.887314,384.884936 357.078035,384.450933 C356.650285,384.337715 356.191459,384.061973 355.79966,384.137452 C351.589797,384.950675 347.3385,385.625115 343.205412,386.736601 C340.022271,387.591824 336.968917,388.956529 333.902158,390.204973 C331.748784,391.080892 329.503402,391.904463 327.628493,393.219255 C326.676719,393.886999 326.765681,396.126406 325.813907,396.682757 C324.702489,397.332849 322.009249,396.414929 321.668024,397.057717 C319.989929,400.221739 317.101703,398.199029 314.931878,398.981208 C313.10998,399.638604 310.959044,399.387211 308.954348,399.538169 C309.822643,397.914766 310.746998,396.318146 311.535471,394.657004 C311.958346,393.765867 312.046699,392.716469 312.472621,391.827767 C312.866858,391.004196 313.482281,390.278017 314.061145,389.557925 C314.226883,389.351576 314.791732,389.381402 314.858149,389.192096 C316.808615,383.64684 322.48148,386.101727 326.024126,384.002321 C326.244704,383.87145 326.749229,383.831885 326.866221,383.968234 C329.815989,387.411649 333.429317,385.536245 336.560666,384.782065 C339.864454,383.985277 342.901966,382.109873 346.082061,380.766472 C347.054552,380.3556 348.118442,379.866205 349.128103,379.891162 C353.234379,379.992206 355.470012,377.198273 357.75561,374.50782 C357.973141,374.250948 357.602668,372.966592 357.268755,372.853373 C354.613903,371.953106 356.659425,371.246406 357.380263,370.746663 C362.694232,367.062202 368.735132,364.10879 373.174713,359.58128 C376.592446,356.097082 380.704816,354.015328 384.343128,351.103917 C390.330407,346.312231 397.564376,343.806214 404.617374,341.171152 C406.940141,340.303754 409.436567,340.550278 410.710067,337.726519 C411.067135,336.933992 412.763511,336.792165 413.787185,336.242508 C420.844449,332.45396 428.066231,328.927153 434.876106,324.735037 C440.101723,321.518058 444.872779,317.536552 449.690144,313.699307 C450.949021,312.696779 451.597348,310.94494 452.583854,309.578409 C453.103612,308.859534 453.644088,307.810136 454.353958,307.635439 C457.140426,306.948825 456.562171,304.982725 455.596992,303.678281 C452.650271,299.696775 449.241068,296.387273 443.863728,295.575267 C434.433733,294.149692 424.979973,293.500818 415.459797,293.016293 C408.467123,292.659595 401.515883,290.941235 394.628013,289.451746 C392.8116,289.058526 391.125583,287.447298 389.679642,286.07894 C385.821363,282.428567 382.279935,278.463496 380.161903,273.511113 C379.466048,271.884058 378.959695,270.028132 378.964569,268.278729 C378.978584,262.762081 378.860374,257.188825 379.609241,251.749483 C380.117422,248.052848 381.68462,244.397605 383.311531,240.97732 C390.377325,226.123216 401.412906,214.73018 415.408613,206.385513 C421.56163,202.716879 428.360538,200.003903 435.098512,197.476581 C441.85111,194.944998 449.07533,195.696134 456.107001,196.197094 C460.146861,196.485009 464.108727,197.745627 468.133353,198.39024 C473.7593,199.291116 478.789321,196.75162 483.996658,195.343088 C487.0884,194.507343 490.111287,193.407422 493.140877,192.356198 C493.859278,192.106631 494.63922,191.706106 495.112061,191.141841 C496.276491,189.754614 497.351959,188.924347 499.18848,190.195313 C499.576014,190.463141 500.833672,190.006616 501.309559,189.516004 C502.681161,188.101385 503.780393,186.423199 505.149558,185.006146 C505.695518,184.441273 507.23164,183.857529 507.357162,184.020661 C508.19621,185.109625 510.628047,184.457099 510.310586,186.760419 C510.00653,188.960261 509.625699,191.182624 509.657384,193.389161 C509.754267,200.270514 510.473886,207.173779 510.090008,214.020436 C509.811544,218.98134 508.592275,224.007984 507.020202,228.749756 C504.797366,235.455803 501.526481,241.764369 496.616497,246.985188 C493.47479,250.326342 489.682928,253.355233 484.932589,252.920621 C480.862263,252.548097 476.97961,251.050695 473.711772,247.839194 C466.703864,240.952972 459.253583,234.480057 449.507954,231.616733 C448.009002,231.176643 446.303487,231.423166 444.693636,231.378731 C443.936848,231.358644 443.178841,231.403079 442.421443,231.417688 C442.913173,230.766379 443.404293,230.113853 444.427968,228.757061 C440.352767,229.716981 436.941736,230.520465 433.530096,231.325166 C433.568484,231.637429 433.606871,231.949083 433.645259,232.261346 C434.570223,232.216302 435.496405,232.120737 436.418931,232.148737 C436.83815,232.161519 437.248229,232.420826 437.662574,232.567522 C437.3116,232.863959 437.002669,233.245614 436.602339,233.443441 C431.496151,235.968937 426.132217,238.078691 421.331304,241.085669 C416.693082,243.989776 414.191781,248.884332 412.305294,253.974281 C409.682127,261.054069 410.40784,267.688898 416.100812,272.848239 C418.557023,275.073646 422.061891,276.387829 425.309621,277.445141 C431.666764,279.514112 438.285919,280.008376 444.989161,280.057681 C450.306177,280.096637 455.68047,280.484379 460.915227,281.384038 C468.048047,282.610568 475.191226,284.076926 482.112609,286.159897 C490.177704,288.587392 496.225916,294.145431 500.729477,301.091915 C502.212587,303.380018 502.870663,306.586649 502.863961,309.371451 C502.852383,314.696358 502.105954,320.020656 501.624583,325.341302 C501.584367,325.78687 501.307122,326.251308 501.033532,326.630528 C499.242711,329.112198 497.435437,331.582911 495.605009,334.035971 C495.018833,334.821803 494.409503,335.608852 493.70207,336.280857 C492.421868,337.495822 490.757177,338.417393 489.785295,339.827751 C485.898987,345.467964 480.456449,349.062946 474.539852,352.172185 C470.8205,354.127329 467.265058,356.392302 463.554236,358.365098 C462.370307,358.995102 460.944475,359.250756 459.594808,359.475975 C457.156268,359.883804 455.214942,360.657462 453.444228,362.744085 C451.501683,365.034014 448.633566,366.541764 446.161513,368.380646 C445.920827,368.558995 445.530246,368.596126 445.373649,368.815867 C443.209307,371.863627 440.452697,374.013555 436.736392,374.900431 C436.212368,375.025215 435.866877,375.900525 435.439128,376.428268 C436.067956,376.395398 436.701051,376.395398 437.325005,376.318702 C437.723507,376.270006 438.10312,376.041135 438.499794,376.015569 C439.018943,375.980873 439.545404,376.067918 440.068819,376.102613 C439.730031,376.534182 439.475941,377.095403 439.04027,377.377231 C432.532622,381.583347 426.028631,385.796768 419.467972,389.918275 C413.711019,393.534561 407.899836,397.066847 402.08256,400.58635 C394.687118,405.060903 386.887081,408.623624 378.333912,410.181287 C375.23364,410.74616 372.009673,410.604333 368.856389,410.925118 C367.376935,411.075467 365.930994,411.553905 364.471039,411.886864 C363.46016,412.117561 362.4505,412.352519 361.439621,412.585043 C361.351268,412.341563 361.262306,412.098691 361.173953,411.855211 Z M319.842471,314.068788 C320.549903,310.021542 321.194575,306.872738 321.610747,303.694716 C321.789281,302.332445 321.668633,300.870348 321.382248,299.518425 C320.512734,295.412745 319.347085,291.364281 318.627466,287.23547 C318.409326,285.984592 317.16812,284.229101 319.529275,283.001353 C320.150792,282.678742 319.853439,279.895158 319.434219,278.393495 C317.442928,271.258923 315.522319,264.086612 313.077077,257.101781 C310.710438,250.340342 307.741781,243.787688 305.016246,237.152859 C304.795059,236.613551 304.461756,236.097982 304.082752,235.653631 C303.798804,235.320672 303.358259,235.121627 302.986567,234.862321 C302.945133,235.307889 302.929899,235.758936 302.854342,236.199026 C302.734304,236.900857 302.573441,237.59721 302.429639,238.295388 C302.075618,237.675732 301.653962,237.085293 301.376716,236.432158 C298.327018,229.236716 295.276711,222.040057 292.27515,214.82392 C290.776198,211.220416 289.510619,207.513434 287.872129,203.976888 C287.114123,202.339485 285.69682,201.011302 284.62318,199.510856 C284.301454,199.061027 283.796929,198.35737 283.944996,198.017107 C285.099677,195.363784 283.204659,195.394827 281.578357,195.258479 C280.245752,195.145869 278.823575,195.330305 278.840636,193.312465 C278.843683,192.984376 278.495146,192.58933 278.211198,192.332458 C276.668374,190.938535 275.095083,189.5787 273.532151,188.207299 C275.18892,185.981283 273.257343,184.068748 272.625467,182.317519 C271.547562,179.333063 270.021799,177.080265 273.122681,174.0392 C274.522312,172.666581 273.997679,169.297427 274.265175,166.824888 C274.449802,165.12479 273.785632,163.142863 276.499589,162.639468 C277.056517,162.535989 277.339246,160.977717 277.7542,160.09145 C278.738269,157.992653 279.800941,155.925508 280.68386,153.785319 C281.220071,152.483919 281.71241,151.086344 281.815386,149.701551 C282.000623,147.207099 282.533178,146.730487 284.889458,147.60458 C285.361079,147.779277 285.864995,147.966757 286.24278,148.280846 C288.816591,150.424078 291.453163,148.630848 294.059878,148.44276 C294.251817,148.429368 294.477879,148.366672 294.619853,148.246758 C297.526358,145.788828 299.240404,145.505174 302.66545,147.258839 C304.454444,148.174932 305.978379,148.495717 307.553498,146.882053 C307.945297,146.48092 308.790438,146.521703 309.427797,146.360397 C309.4802,146.947793 309.744649,147.61858 309.550273,148.107975 C308.609467,150.475209 309.577083,151.269562 311.866947,151.349302 C312.439717,151.36878 313.163601,151.868523 313.523716,152.36157 C314.89349,154.237583 315.846483,156.530556 317.521532,158.038914 C319.157583,159.512576 319.37024,161.020326 319.635908,162.974862 C320.382947,168.473248 321.446228,173.93146 322.471731,179.389672 C323.459455,184.645796 324.422197,189.912876 325.64756,195.116043 C326.609083,199.199202 328.006278,203.178273 329.115259,207.229171 C330.473456,212.186423 331.659822,217.189936 333.050923,222.137449 C335.299961,230.136984 337.703769,238.0933 339.924778,246.09953 C340.376901,247.72902 340.215429,249.519206 340.52375,251.201044 C340.669989,251.997832 341.259821,252.713055 341.648573,253.466016 C342.348085,252.861577 343.399179,252.391661 343.691049,251.631395 C345.8365,246.036225 347.899083,240.40636 349.85869,234.742407 C353.604243,223.914244 357.181621,213.027646 360.986279,202.22018 C364.021963,193.597945 367.284317,185.054842 370.462584,176.482521 C373.462317,168.391682 376.410257,160.280756 379.530028,152.236786 C380.932097,148.622935 382.61263,145.108302 384.358361,141.645408 C384.795251,140.778619 386.090077,140.38479 386.771309,139.586785 C387.323971,138.939128 387.672508,138.043122 387.888211,137.200681 C388.186174,136.03563 388.256856,135.39406 389.430426,136.735634 C390.920239,138.439994 392.410051,137.376595 393.518423,136.133022 C396.721063,132.541083 399.818898,128.855405 402.96548,125.212945 C403.29269,124.833725 403.617463,124.404592 404.03912,124.169025 C404.399843,123.968154 404.897057,124.01198 405.334556,123.947458 C405.32176,124.333982 405.433877,124.782594 405.27606,125.095466 C404.643575,126.350605 403.809402,127.515657 403.290253,128.810362 C403.013617,129.501236 403.227492,130.38872 403.220789,131.186726 C404.058009,131.049769 405.165162,131.199509 405.678218,130.717418 C406.828634,129.636976 407.733489,128.277749 408.649922,126.970262 C415.960667,116.535928 423.239726,106.08029 430.579109,95.6660428 C430.969081,95.1127346 431.814831,94.8796025 432.448535,94.4967303 C432.491188,95.3154316 432.864707,96.3179604 432.524701,96.9217907 C430.226916,101.012863 427.779846,105.019934 425.372382,109.048919 C425.272452,109.215703 424.96474,109.318573 424.951944,109.468922 C424.367596,116.198708 418.933589,120.546043 416.643116,126.42791 C416.406087,127.035393 416.516376,127.777398 416.465801,128.456098 C416.92219,127.993486 417.405998,127.554005 417.830701,127.063393 C418.907997,125.818602 420.047445,124.615202 420.997391,123.277888 C422.202646,121.58205 423.170262,119.716994 424.4005,118.041852 C424.797784,117.498891 425.698374,117.324803 426.368028,116.982105 C426.270535,117.693675 426.330249,118.475246 426.050567,119.106468 C423.703426,124.405809 421.09793,129.600454 418.992694,134.991709 C418.028124,137.460596 417.97694,140.293485 417.591844,142.972374 C417.513849,143.51716 417.794751,144.112469 417.909914,144.684647 C418.493653,144.283513 419.390587,144.007164 419.608727,143.459334 C420.612903,140.945403 424.988504,135.427538 427.090693,134.425618 C427.404499,134.276487 428.281934,134.540054 428.282543,134.615533 C428.292293,136.596242 428.221001,138.57756 428.162505,140.55827 C428.093042,142.900547 428.170427,145.274477 424.663122,145.110128 C424.204296,145.088823 423.585826,146.348832 423.209869,147.100577 C422.384836,148.748327 421.588441,150.419817 420.921834,152.136351 C419.477721,155.856725 418.215189,159.650143 416.697956,163.339473 C415.682203,165.809577 414.634764,168.343595 413.127281,170.521523 C401.816892,186.857811 392.559946,204.289151 385.448453,222.807019 C381.396406,233.357615 377.942113,244.139516 374.298318,254.844722 C371.968848,261.688943 369.607084,268.531948 367.59995,275.473562 C366.314873,279.921332 365.58002,284.53406 364.720255,289.095657 C363.564356,295.236222 362.280497,301.367656 361.508475,307.55996 C360.783372,313.372435 360.624946,319.256737 360.277019,325.113648 C360.181354,326.728529 360.31236,328.35741 360.317844,329.979595 C360.347701,337.713736 357.246819,340.444973 349.619832,341.963679 C346.281312,342.628988 343.535669,341.667851 340.529234,341.506545 C339.86872,341.471241 338.709773,340.364624 338.724397,339.775403 C338.825546,335.753114 336.198114,333.42788 333.646239,331.018037 C329.852548,327.436447 325.819391,324.069728 322.357177,320.193527 C320.852131,318.508037 320.506641,315.784104 319.842471,314.068788 Z M453.68857,41.6847086 C453.892086,42.4102789 453.963378,43.2119367 454.32471,43.8486368 C455.222863,45.4312566 454.838985,46.3723066 453.544768,47.7205769 C451.947104,49.3847625 450.997158,51.6673872 449.754124,53.6748795 C449.489675,54.1015781 449.244114,54.7498435 448.862064,54.8618443 C441.620174,56.9892505 440.554455,63.7750371 437.823437,69.3129889 C437.55655,69.8547318 437.0569,70.4305619 436.523126,70.6588244 C435.549416,71.0757838 434.469683,71.2443937 433.433822,71.5164825 C433.606262,70.6277807 433.634291,69.6788175 433.974907,68.8601161 C435.885157,64.2638231 438.301761,59.8227486 439.672145,55.077324 C440.511193,52.1713907 443.515801,49.1071953 440.571517,45.6972584 C440.374703,45.4696047 440.375922,44.821948 440.558111,44.5559461 C442.088749,42.3128869 443.591357,40.0381754 445.307232,37.9412042 C445.901938,37.2150252 447.062103,36.9344145 447.989503,36.5071072 C448.241766,36.3908455 448.625035,36.5667598 448.887047,36.4596286 C449.975311,36.0152776 451.041029,35.5124915 452.115279,35.0316186 C452.828805,37.1918946 453.54233,39.3515619 454.255856,41.5118378 C454.065745,41.5696643 453.876853,41.6274908 453.68857,41.6847086 Z M271.581075,407.77327 C270.984541,407.835966 270.049828,407.677704 269.843265,407.994228 C267.458346,411.648253 264.523812,408.913365 261.845805,408.710668 C261.282784,408.668059 260.409614,408.081272 260.327963,407.629008 C260.244485,407.162744 260.842238,406.389086 261.344326,406.051258 C261.984732,405.620907 262.930413,405.639777 263.559851,405.201513 C264.464707,404.570291 265.780251,403.782633 265.902117,402.918279 C266.234202,400.568089 267.736201,400.479219 269.396626,400.620437 C270.979057,400.75496 272.548082,401.104354 274.100046,401.458617 C274.37912,401.52253 274.783715,402.119056 274.728266,402.385667 C274.432741,403.810025 274.112842,405.248991 273.584553,406.59787 C273.326197,407.256484 272.596219,407.730052 272.079507,408.287621 C271.91316,408.116577 271.747422,407.944923 271.581075,407.77327 Z M299.728478,413.114003 C298.691398,412.922871 297.785324,412.802957 296.910935,412.566173 C296.613582,412.485825 296.39666,412.108431 296.143179,411.866777 C298.145438,410.550767 297.174166,407.905358 299.532883,406.070127 C303.415536,403.049758 306.738214,405.970301 310.18093,405.270296 C310.257096,405.255078 310.697642,406.306303 310.620257,406.360477 C307.36887,408.621189 304.085799,410.837465 300.777135,413.014785 C300.483438,413.206525 299.989271,413.094524 299.728478,413.114003 Z M310.804275,438.410354 C310.637927,438.278875 310.078562,437.836958 309.518588,437.393825 C310.018848,436.809473 310.414303,436.050424 311.039476,435.671813 C313.559666,434.143367 316.144445,432.722053 318.72374,431.294652 C319.03328,431.122998 319.53415,431.003084 319.799208,431.141259 C319.994194,431.242912 320.075235,431.839438 319.989319,432.156571 C319.220344,434.988852 314.379825,438.508963 310.804275,438.410354 Z M310.804275,438.410354" id="Shape"></path>
        </g>
    </g>
</svg>