<svg width="41" height="72" xmlns="http://www.w3.org/2000/svg" xml:space="preserve" version="1.1" preserveAspectRatio="xMidYMid meet">
  <path d="m19.86385,1.29369c-5.75097,-0.42987 -11.50201,-0.85968 -17.25299,-1.28955c-1.0755,-0.08038 -3.17822,1.02063 -2.4671,2.44336c2.57794,5.15766 5.15588,10.31537 7.73376,15.47309c1.11206,2.22485 6.04895,1.47125 4.84412,-0.93934c-1.54639,-3.09381 -3.09271,-6.18762 -4.6391,-9.28149c3.59509,2.1369 6.84998,5.39453 9.41071,8.40106c12.45282,14.62042 16.99755,34.77741 19.19561,53.34595c0.26484,2.23688 4.95641,3.55939 4.62408,0.75195c-2.32117,-19.60767 -7.33031,-40.60943 -20.51581,-55.96351c-2.97955,-3.4696 -6.74823,-7.21997 -10.98157,-9.73852c3.3194,0.2481 6.6388,0.49621 9.95819,0.74432c3.1366,0.23438 3.19696,-3.71515 0.09009,-3.94733z"/>
</svg>