<svg width="236" height="192" xmlns="http://www.w3.org/2000/svg"><path d="M74.4 191.5c88.7 0 137.2-73.5 137.2-137.2 0-2.1 0-4.2-.1-6.2 9.4-6.8 17.6-15.3 24.1-25-8.6 3.8-17.9 6.4-27.7 7.6 10-6 17.6-15.4 21.2-26.7-9.3 5.5-19.6 9.5-30.6 11.7C189.7 6.3 177.2.5 163.3.5c-26.6 0-48.2 21.6-48.2 48.2 0 3.8.4 7.5 1.3 11-40.1-2-75.6-21.2-99.4-50.4-4.1 7.1-6.5 15.4-6.5 24.2C10.5 50.2 19 65 32 73.6c-7.9-.2-15.3-2.4-21.8-6v.6c0 23.4 16.6 42.8 38.7 47.3-4 1.1-8.3 1.7-12.7 1.7-3.1 0-6.1-.3-9.1-.9 6.1 19.2 23.9 33.1 45 33.5-16.5 12.9-37.3 20.6-59.9 20.6-3.9 0-7.7-.2-11.5-.7 21.1 13.8 46.5 21.8 73.7 21.8" fill-rule="nonzero" fill="#FFF"/></svg>